<?xml version="1.0" encoding="UTF-8" standalone="no"?>
<!-- Created with Inkscape (http://www.inkscape.org/) -->

<svg
   xmlns:dc="http://purl.org/dc/elements/1.1/"
   xmlns:cc="http://creativecommons.org/ns#"
   xmlns:rdf="http://www.w3.org/1999/02/22-rdf-syntax-ns#"
   xmlns:svg="http://www.w3.org/2000/svg"
   xmlns="http://www.w3.org/2000/svg"
   xmlns:sodipodi="http://sodipodi.sourceforge.net/DTD/sodipodi-0.dtd"
   xmlns:inkscape="http://www.inkscape.org/namespaces/inkscape"
   width="64"
   height="64"
   viewBox="0 0 16.933333 16.933334"
   version="1.1"
   id="svg8"
   inkscape:version="0.92.3 (2405546, 2018-03-11)"
   sodipodi:docname="icone_64x64.svg">
  <defs
     id="defs2" />
  <sodipodi:namedview
     id="base"
     pagecolor="#ffffff"
     bordercolor="#666666"
     borderopacity="1.0"
     inkscape:pageopacity="0.0"
     inkscape:pageshadow="2"
     inkscape:zoom="2.8"
     inkscape:cx="-7.2681944"
     inkscape:cy="42.814855"
     inkscape:document-units="mm"
     inkscape:current-layer="layer1"
     showgrid="false"
     units="px"
     inkscape:window-width="1280"
     inkscape:window-height="944"
     inkscape:window-x="0"
     inkscape:window-y="0"
     inkscape:window-maximized="1" />
  <metadata
     id="metadata5">
    <rdf:RDF>
      <cc:Work
         rdf:about="">
        <dc:format>image/svg+xml</dc:format>
        <dc:type
           rdf:resource="http://purl.org/dc/dcmitype/StillImage" />
        <dc:title></dc:title>
      </cc:Work>
    </rdf:RDF>
  </metadata>
  <g
     inkscape:label="Camada 1"
     inkscape:groupmode="layer"
     id="layer1"
     transform="translate(0,-280.06665)">
    <g
       id="g4673"
       transform="matrix(0.39636605,0,0,0.39636605,3.739023,178.96599)">
      <path
         inkscape:connector-curvature="0"
         id="path4520-3-6"
         d="m -4.063882,256.7805 -4.7723187,9.26714 3.9801189,2.04948 2.6137939,1.34617 2.49493813,1.28468 3.46387127,1.78387 a 6.3783479,6.3783479 0 0 0 3.4292479,6.23476 6.3783479,6.3783479 0 0 0 8.5906896,-2.75022 6.3783479,6.3783479 0 0 0 -2.750219,-8.59069 6.3783479,6.3783479 0 0 0 -7.0672692,0.82889 l -3.463871,-1.78387 1.3766602,-2.6727 -2.4949382,-1.2852 -1.37666019,2.67323 -2.61379391,-1.34618 2.56986895,-4.98987 z m 14.146423,12.84676 a 3.4490326,3.4490326 0 0 1 1.562695,0.38241 3.4490326,3.4490326 0 0 1 1.487248,4.64571 3.4490326,3.4490326 0 0 1 -4.6457111,1.48725 3.4490326,3.4490326 0 0 1 -1.4872477,-4.64571 3.4490326,3.4490326 0 0 1 3.0830158,-1.86966 z"
         style="fill:#000080;stroke-width:0.74414062" />
      <path
         inkscape:connector-curvature="0"
         id="path4520-3"
         d="m 23.664298,255.3298 -2.238623,3.87676 -1.469677,2.5461 -1.403532,2.43086 -1.948202,3.37396 a 6.3783482,6.3783482 0 0 0 -6.391858,3.1259 6.3783482,6.3783482 0 0 0 2.334742,8.71317 6.3783482,6.3783482 0 0 0 8.712646,-2.33474 6.3783482,6.3783482 0 0 0 -0.488859,-7.09931 l 1.948202,-3.37344 2.603459,1.50327 1.40353,-2.43086 -2.603974,-1.50327 1.470194,-2.5461 4.860685,2.80655 2.238107,-3.87728 z m -8.090979,15.09779 a 3.4490326,3.4490326 0 0 1 1.887224,0.45785 3.4490326,3.4490326 0 0 1 1.262455,4.71186 3.4490326,3.4490326 0 0 1 -4.71134,1.26245 3.4490326,3.4490326 0 0 1 -1.262456,-4.71186 3.4490326,3.4490326 0 0 1 2.824117,-1.7203 z"
         style="fill:#ffcc00;stroke-width:0.74414062" />
      <path
         inkscape:connector-curvature="0"
         id="path4520-3-6-1"
         d="m 12.718403,270.76804 a 6.3783482,6.3783482 0 0 0 -0.451652,0.006 6.3783482,6.3783482 0 0 0 -6.0647455,6.67711 6.3783482,6.3783482 0 0 0 4.2519365,5.70611 l 0.187068,3.89124 -3.0034337,0.14417 0.134876,2.80345 3.0029167,-0.14418 0.141077,2.93626 -5.6058591,0.26975 0.214974,4.47156 10.4117671,-0.50075 -0.214974,-4.47156 -0.141076,-2.93625 -0.134876,-2.80345 -0.187069,-3.89175 a 6.3783482,6.3783482 0 0 0 3.68453,-6.08697 6.3783482,6.3783482 0 0 0 -6.22546,-6.07094 z m -0.311092,2.93212 a 3.4490326,3.4490326 0 0 1 3.610632,3.27938 3.4490326,3.4490326 0 0 1 -3.279386,3.61064 3.4490326,3.4490326 0 0 1 -3.6106317,-3.27939 3.4490326,3.4490326 0 0 1 3.2793857,-3.61063 z"
         style="fill:#800000;stroke-width:0.74414062" />
    </g>
  </g>
</svg>
